<svg width="42" height="42" viewBox="0 0 42 42" fill="none" xmlns="http://www.w3.org/2000/svg">
<path d="M20.8039 0.881325L21.3039 0.875914L21.3039 0.395273L20.8236 0.381558L20.8039 0.881325ZM20.8039 19.861L20.3038 19.8664L20.3038 20.361H20.7984L20.8039 19.861ZM19.8098 0.852939L19.8294 0.353172L19.3097 0.338333L19.3097 0.85835L19.8098 0.852939ZM19.8097 19.861L19.8043 20.361H20.3097L20.3097 19.8556L19.8097 19.861ZM0.794196 19.861L0.799609 19.3611H0.278696L0.294394 19.8815L0.794196 19.861ZM0.824507 20.866L0.324705 20.8865L0.339168 21.3659H0.819094L0.824507 20.866ZM19.8097 20.866L20.3097 20.8606L20.3097 20.366H19.8151L19.8097 20.866ZM19.8096 40.8222L19.3096 40.8277L19.3096 41.3083L19.79 41.322L19.8096 40.8222ZM20.8038 40.8506L20.7841 41.3504L21.3038 41.3652L21.3038 40.8452L20.8038 40.8506ZM20.8039 20.866L20.8093 20.366H20.3038L20.3038 20.8714L20.8039 20.866ZM40.7834 20.866L40.778 21.3659H41.2989L41.2832 20.8455L40.7834 20.866ZM40.7531 19.861L41.2529 19.8406L41.2384 19.3611H40.7585L40.7531 19.861ZM20.3039 0.886736L20.3038 19.8664L21.3039 19.8556L21.3039 0.875914L20.3039 0.886736ZM19.7901 1.35271L20.7842 1.38109L20.8236 0.381558L19.8294 0.353172L19.7901 1.35271ZM20.3097 19.8556L20.3098 0.847528L19.3097 0.85835L19.3097 19.8664L20.3097 19.8556ZM0.788783 20.361H19.8043L19.8151 19.3611H0.799609L0.788783 20.361ZM1.32431 20.8455L1.294 19.8406L0.294394 19.8815L0.324705 20.8865L1.32431 20.8455ZM19.8151 20.366H0.82992L0.819094 21.3659H19.8043L19.8151 20.366ZM20.3097 40.8168L20.3097 20.8606L19.3097 20.8714L19.3096 40.8277L20.3097 40.8168ZM20.8235 40.3509L19.8293 40.3225L19.79 41.322L20.7841 41.3504L20.8235 40.3509ZM20.3038 20.8714L20.3038 40.856L21.3038 40.8452L21.3039 20.8606L20.3038 20.8714ZM40.7888 20.366L20.8093 20.366L20.7984 21.3659L40.778 21.3659L40.7888 20.366ZM40.2533 19.8815L40.2836 20.8865L41.2832 20.8455L41.2529 19.8406L40.2533 19.8815ZM20.7984 20.361L40.7477 20.361L40.7585 19.3611L20.8093 19.3611L20.7984 20.361Z" fill="#D3BE73"/>
</svg>
