<svg width="53" height="66" viewBox="0 0 53 66" fill="none" xmlns="http://www.w3.org/2000/svg">
<path d="M52.7617 26.8809C52.7617 24.4347 51.7111 22.0758 50.0324 20.5425C50.7174 18.377 50.4463 15.8102 49.2228 13.6906C48.0019 11.5755 45.914 10.0578 43.6943 9.56598C43.2056 7.34417 41.688 5.25465 39.5705 4.03349C37.4565 2.81423 34.889 2.54483 32.72 3.2286C31.1857 1.55041 28.8261 0.5 26.3809 0.5C23.9356 0.5 21.5761 1.55041 20.0418 3.2286C17.8726 2.54458 15.3052 2.81436 13.1913 4.03349C11.0739 5.25465 9.55627 7.34417 9.0675 9.5661C6.84798 10.0579 4.75985 11.5758 3.53907 13.6906C2.3155 15.81 2.04445 18.377 2.72949 20.5425C1.05066 22.0758 0 24.4347 0 26.8809C0 29.327 1.05066 31.6859 2.72936 33.2192C2.04433 35.3847 2.31537 37.9516 3.53894 40.0713C4.75998 42.1863 6.84773 43.7042 9.06737 44.1957C9.55627 46.4177 11.0737 48.5071 13.1911 49.7282C15.3052 50.9475 17.8726 51.2171 20.0416 50.5331C21.1708 51.7682 22.7478 52.6615 24.4764 53.0481V63.5957C24.4764 64.6474 25.3291 65.5 26.3807 65.5C27.4324 65.5 28.285 64.6474 28.285 63.5957V53.0481C30.0136 52.6616 31.5905 51.7684 32.7199 50.5331C34.8886 51.2169 37.4565 50.9475 39.5704 49.7282C41.6879 48.5071 43.2053 46.4177 43.6942 44.1957C45.9137 43.7039 48.0019 42.1862 49.2228 40.0713C50.4463 37.9517 50.7173 35.3847 50.0322 33.2192C51.7111 31.6858 52.7617 29.3269 52.7617 26.8809ZM46.7801 30.8905C46.3042 31.1366 45.9542 31.5718 45.8156 32.0891C45.677 32.6066 45.7628 33.1584 46.0517 33.6094C46.6861 34.5992 46.9168 36.4477 45.9243 38.1671C44.9347 39.8814 43.2159 40.6046 42.0368 40.5556C41.502 40.532 40.984 40.7345 40.6063 41.1127C40.2288 41.4909 40.0276 42.0101 40.0516 42.5438C40.1047 43.7221 39.3814 45.4404 37.6676 46.4288C35.9539 47.4173 34.1001 47.1856 33.1031 46.5519C32.6525 46.2655 32.1025 46.1815 31.5868 46.3203C31.0713 46.4591 30.6376 46.8079 30.3916 47.2817C30.0417 47.9556 29.2984 48.6608 28.285 49.0785V27.6694L36.3759 19.5747C37.1193 18.8309 37.1191 17.6251 36.3752 16.8815C35.6314 16.1382 34.4256 16.1383 33.6822 16.8822L28.2852 22.282V14.6426C28.2852 13.5909 27.4325 12.7383 26.3809 12.7383C25.3292 12.7383 24.4766 13.5909 24.4766 14.6426V34.5218L15.4892 25.5343C14.7456 24.7906 13.5398 24.7906 12.7961 25.5343C12.0524 26.2778 12.0524 27.4836 12.7961 28.2273L24.4766 39.9079V49.0785C23.4632 48.6608 22.7198 47.9556 22.37 47.2817C22.124 46.8079 21.6903 46.4591 21.1748 46.3203C21.0417 46.2845 20.3593 46.1065 19.6584 46.5519C18.6615 47.1856 16.8078 47.4176 15.0938 46.4288C13.3801 45.4405 12.6567 43.7222 12.7099 42.5438C12.7339 42.0101 12.5327 41.4908 12.1551 41.1127C11.7776 40.7346 11.2597 40.5309 10.7246 40.5556C9.54688 40.6059 7.82679 39.8812 6.83719 38.1671C5.84467 36.4477 6.07534 34.5992 6.70973 33.6094C6.99867 33.1584 7.08449 32.6067 6.94586 32.0891C6.80735 31.5718 6.45722 31.1366 5.9814 30.8905C4.93505 30.349 3.80859 28.8632 3.80859 26.8809C3.80859 24.8985 4.93505 23.4128 5.98165 22.8712C6.45747 22.6251 6.80748 22.1899 6.94611 21.6726C7.08475 21.1551 6.99893 20.6033 6.70998 20.1523C6.0756 19.1625 5.84492 17.3142 6.83744 15.5947C7.82704 13.8806 9.54586 13.1572 10.725 13.2061C11.2586 13.2292 11.7778 13.0272 12.1554 12.649C12.5329 12.2708 12.7342 11.7516 12.7102 11.2179C12.657 10.0396 13.3804 8.32133 15.0941 7.33287C16.808 6.34441 18.6616 6.57636 19.6587 7.20985C20.1094 7.49626 20.6595 7.58043 21.175 7.44142C21.6906 7.30266 22.1242 6.95392 22.3703 6.48013C22.9129 5.43416 24.3996 4.30859 26.3809 4.30859C28.3621 4.30859 29.8488 5.43416 30.3917 6.48C30.6377 6.95379 31.0714 7.30253 31.587 7.44129C32.1026 7.5803 32.6527 7.49613 33.1033 7.20973C34.1004 6.57598 35.954 6.34454 37.6679 7.33274C39.3816 8.32107 40.105 10.0394 40.0518 11.2178C40.0278 11.7515 40.229 12.2708 40.6066 12.6489C40.9841 13.027 41.5031 13.2293 42.037 13.206C43.2161 13.1567 44.9349 13.8805 45.9245 15.5946C46.917 17.3141 46.6864 19.1625 46.052 20.1522C45.763 20.6032 45.6772 21.1549 45.8159 21.6725C45.9544 22.1898 46.3045 22.625 46.7803 22.871C47.8269 23.4126 48.9534 24.8984 48.9534 26.8807C48.9534 28.8631 47.8267 30.349 46.7801 30.8905Z" fill="#D3BE73"/>
</svg>
