<svg width="65" height="66" viewBox="0 0 65 66" fill="none" xmlns="http://www.w3.org/2000/svg">
<path d="M5.94309 62.0166C6.68656 62.76 7.89221 62.7602 8.63581 62.0166L38.8614 31.791L40.2075 33.137C40.2076 33.1371 40.2077 33.1373 40.2077 33.1374C40.963 33.8924 42.1697 33.8682 42.9004 33.1374C43.643 32.3951 44.8507 32.3949 45.5933 33.1374C46.3357 33.8797 46.3357 35.0878 45.5933 35.8301C44.8465 36.577 44.8551 37.7851 45.5933 38.5228L50.9789 43.9083C51.3507 44.2801 51.838 44.4659 52.3252 44.4659C52.8124 44.4659 53.2998 44.28 53.6715 43.9082L64.4425 33.1371C65.1856 32.3942 65.1861 31.1879 64.4425 30.4444L59.0569 25.059C58.3063 24.3084 57.0989 24.324 56.3642 25.059C55.6216 25.8013 54.4138 25.8013 53.6715 25.059C52.9272 24.3147 52.9272 23.1105 53.6715 22.3662C54.4121 21.6254 54.4153 20.4171 53.6715 19.6735L40.2077 6.20976C36.4958 2.49785 30.456 2.49773 26.7441 6.20976L21.3585 11.5952C20.779 12.1747 20.6353 13.0601 21.0018 13.7931C21.3683 14.5262 22.163 14.9424 22.974 14.8265L30.5137 13.7495C31.1035 13.6652 31.7077 13.8665 32.1294 14.2881C32.8736 15.0323 32.8736 16.2366 32.1294 16.9808L29.4368 19.6735C28.6932 20.4171 28.6932 21.6226 29.4368 22.3662L30.7831 23.7125L0.55751 53.9383C-0.185583 54.6812 -0.18609 55.8875 0.55751 56.631L5.94309 62.0166ZM57.7106 29.0981L60.4035 31.7908L52.3252 39.8691L49.6323 37.1764L57.7106 29.0981ZM50.9789 27.7518C51.4508 28.2238 51.986 28.5947 52.5568 28.8666L49.4033 32.0201C49.127 31.4429 48.752 30.9104 48.286 30.4445C47.8202 29.9787 47.2877 29.6037 46.7105 29.3274L49.8616 26.1763C50.1379 26.7535 50.5129 27.2858 50.9789 27.7518ZM29.9754 9.97968L28.0904 10.2489L29.4368 8.90248C31.6641 6.67524 35.2881 6.67537 37.5151 8.90248L49.6326 21.0198L41.5541 29.0981C40.3754 27.9194 34.5141 22.058 33.4758 21.0198L34.8221 19.6735C37.0545 17.4413 37.0548 13.8278 34.8221 11.5952C33.5578 10.3308 31.7457 9.72669 29.9754 9.97968ZM33.4758 26.4054L36.1686 29.0982L15.3677 49.8991L12.6748 47.2064L33.4758 26.4054ZM9.98211 49.8991L12.675 52.592L7.28939 57.9774L4.59653 55.2847L9.98211 49.8991Z" fill="#D3BE73"/>
</svg>
