<svg width="35" height="35" viewBox="0 0 35 35" fill="none" xmlns="http://www.w3.org/2000/svg">
<path fill-rule="evenodd" clip-rule="evenodd" d="M17.5 7C14.6488 7 14.291 7.01212 13.1708 7.063C12.0529 7.11388 11.2897 7.29158 10.6217 7.55085C9.92119 7.81468 9.28667 8.22813 8.76238 8.76238C8.22803 9.28691 7.81457 9.92171 7.55085 10.6225C7.29158 11.2897 7.11469 12.0529 7.063 13.1708C7.01212 14.291 7 14.6488 7 17.5C7 20.3512 7.01212 20.709 7.063 21.8292C7.11388 22.9471 7.29158 23.7103 7.55085 24.3775C7.81981 25.0681 8.17842 25.6537 8.76238 26.2376C9.28667 26.7719 9.92119 27.1853 10.6217 27.4492C11.2897 27.7076 12.0529 27.8853 13.1708 27.937C14.291 27.9879 14.6488 28 17.5 28C20.3512 28 20.709 27.9879 21.8292 27.937C22.9471 27.8861 23.7103 27.7084 24.3775 27.4492C25.0783 27.1855 25.7131 26.772 26.2376 26.2376C26.772 25.7131 27.1854 25.0783 27.4492 24.3775C27.7076 23.7103 27.8853 22.9471 27.937 21.8292C27.9879 20.709 28 20.3512 28 17.5C28 14.6488 27.9879 14.291 27.937 13.1708C27.8861 12.0529 27.7084 11.2897 27.4483 10.6225C27.1849 9.92179 26.7717 9.28699 26.2376 8.76238C25.7131 8.22801 25.0783 7.81455 24.3775 7.55085C23.7103 7.29238 22.9471 7.11469 21.8292 7.063C20.709 7.01212 20.3512 7 17.5 7ZM17.5 8.89162C20.3035 8.89162 20.6355 8.90292 21.7428 8.953C22.7662 8.99985 23.3227 9.17108 23.6926 9.31485C24.1828 9.50546 24.5326 9.73242 24.9001 10.0999C25.2676 10.4674 25.4945 10.8172 25.6852 11.3074C25.8289 11.6773 26.0002 12.233 26.047 13.2572C26.0971 14.3637 26.1084 14.6965 26.1084 17.5C26.1084 20.3035 26.0971 20.6355 26.047 21.7428C26.0002 22.767 25.8289 23.3227 25.6852 23.6926C25.517 24.1487 25.2487 24.5613 24.9001 24.9001C24.5613 25.2487 24.1487 25.517 23.6926 25.6852C23.3227 25.8289 22.7662 26.0002 21.7428 26.047C20.6363 26.0971 20.3035 26.1084 17.5 26.1084C14.6965 26.1084 14.3637 26.0971 13.2572 26.047C12.233 26.0002 11.6773 25.8289 11.3074 25.6852C10.8513 25.517 10.4387 25.2487 10.0999 24.9001C9.75135 24.5612 9.48309 24.1486 9.31485 23.6926C9.17108 23.3227 8.99985 22.767 8.953 21.7428C8.90292 20.6363 8.89162 20.3035 8.89162 17.5C8.89162 14.6965 8.90292 14.3645 8.953 13.2572C8.99985 12.233 9.17108 11.6773 9.31485 11.3074C9.50546 10.8172 9.73242 10.4674 10.0999 10.0999C10.4387 9.7513 10.8513 9.48304 11.3074 9.31485C11.6773 9.17108 12.233 8.99985 13.2572 8.953C14.3637 8.90292 14.6965 8.89162 17.5 8.89162Z" fill="#D3BE73"/>
<path fill-rule="evenodd" clip-rule="evenodd" d="M17.5 11.8462C16.0005 11.8462 14.5624 12.4419 13.5021 13.5022C12.4418 14.5625 11.8462 16.0005 11.8462 17.5C11.8462 18.9995 12.4418 20.4376 13.5021 21.4979C14.5624 22.5582 16.0005 23.1539 17.5 23.1539C18.9995 23.1539 20.4376 22.5582 21.4979 21.4979C22.5582 20.4376 23.1539 18.9995 23.1539 17.5C23.1539 16.0005 22.5582 14.5625 21.4979 13.5022C20.4376 12.4419 18.9995 11.8462 17.5 11.8462ZM17.5 21.1346C16.536 21.1346 15.6116 20.7517 14.9299 20.0701C14.2483 19.3885 13.8654 18.464 13.8654 17.5C13.8654 16.5361 14.2483 15.6116 14.9299 14.93C15.6116 14.2483 16.536 13.8654 17.5 13.8654C18.464 13.8654 19.3884 14.2483 20.0701 14.93C20.7517 15.6116 21.1346 16.5361 21.1346 17.5C21.1346 18.464 20.7517 19.3885 20.0701 20.0701C19.3884 20.7517 18.464 21.1346 17.5 21.1346ZM24.5269 11.927C24.5269 12.0967 24.4935 12.2647 24.4286 12.4215C24.3636 12.5783 24.2684 12.7207 24.1484 12.8408C24.0284 12.9608 23.886 13.0559 23.7292 13.1209C23.5724 13.1858 23.4043 13.2193 23.2346 13.2193C23.0649 13.2193 22.8969 13.1858 22.7401 13.1209C22.5833 13.0559 22.4408 12.9608 22.3208 12.8408C22.2008 12.7207 22.1056 12.5783 22.0407 12.4215C21.9757 12.2647 21.9423 12.0967 21.9423 11.927C21.9423 11.5842 22.0785 11.2555 22.3208 11.0132C22.5632 10.7708 22.8919 10.6346 23.2346 10.6346C23.5774 10.6346 23.9061 10.7708 24.1484 11.0132C24.3908 11.2555 24.5269 11.5842 24.5269 11.927Z" fill="#D3BE73"/>
</svg>
