<svg width="125" height="45" viewBox="0 0 125 45" fill="none" xmlns="http://www.w3.org/2000/svg">
<g clip-path="url(#clip0_34_22)">
<path d="M28.8227 24.6966L31.2401 5.35794C31.3019 4.86329 31.2578 4.36116 31.1107 3.88485C30.9637 3.40854 30.717 2.96895 30.3871 2.59524C30.0572 2.22153 29.6516 1.92226 29.1972 1.71727C28.7428 1.51227 28.25 1.40626 27.7516 1.40625H18.1209C17.4058 1.40854 16.7082 1.62786 16.1204 2.03519C15.5327 2.44252 15.0824 3.01868 14.8291 3.68746L10.3482 15.6365C10.0547 16.4119 9.53263 17.0799 8.8512 17.5521C8.16977 18.0243 7.36104 18.2786 6.53197 18.2812H2.10938C1.55013 18.2819 1.01397 18.5043 0.618528 18.8998C0.223082 19.2952 0.000639703 19.8314 2.90633e-10 20.3906V24.6094C-2.6545e-06 24.7017 0.0181824 24.7931 0.0535168 24.8785C0.0888512 24.9638 0.140643 25.0413 0.205935 25.1066C0.271226 25.1719 0.348739 25.2236 0.434047 25.259C0.519356 25.2943 0.610789 25.3125 0.703125 25.3125H2.69607L0.198827 41.5445C0.128822 41.9995 0.237931 42.4639 0.503218 42.8401C0.768506 43.2163 1.16931 43.475 1.62138 43.5618C2.07344 43.6486 2.54156 43.5568 2.92733 43.3057C3.3131 43.0545 3.58648 42.6635 3.68999 42.215L7.59058 25.3125H10.2526L7.75532 41.5445C7.6853 41.9995 7.7944 42.4639 8.05969 42.8401C8.32498 43.2163 8.72579 43.475 9.17786 43.5619C9.62994 43.6487 10.0981 43.5569 10.4838 43.3057C10.8696 43.0545 11.143 42.6636 11.2465 42.215L15.1471 25.3125H17.8998L21.8004 42.215C21.9039 42.6636 22.1773 43.0545 22.563 43.3057C22.9488 43.5568 23.4169 43.6487 23.869 43.5619C24.3211 43.475 24.7219 43.2163 24.9872 42.8402C25.2524 42.464 25.3616 41.9996 25.2916 41.5446L22.7943 25.3125H23.5248L27.4254 42.215C27.5289 42.6636 27.8023 43.0545 28.188 43.3057C28.5738 43.5568 29.0419 43.6487 29.494 43.5619C29.9461 43.475 30.3469 43.2163 30.6122 42.8402C30.8774 42.464 30.9866 41.9996 30.9166 41.5446L28.4099 25.2515C28.5207 25.2025 28.617 25.1256 28.6893 25.0284C28.7617 24.9311 28.8076 24.8168 28.8227 24.6966ZM4.92188 19.6875H6.53197C7.64709 19.6839 8.73485 19.342 9.6514 18.7068C10.5679 18.0716 11.2701 17.1732 11.6649 16.1303L16.1459 4.18124C16.2978 3.77997 16.568 3.43427 16.9206 3.18986C17.2733 2.94546 17.6918 2.81387 18.1209 2.8125H27.7516C28.0506 2.8125 28.3463 2.87611 28.619 2.9991C28.8916 3.1221 29.135 3.30166 29.3329 3.52588C29.5308 3.7501 29.6788 4.01386 29.7671 4.29964C29.8553 4.58542 29.8818 4.8867 29.8447 5.18349L28.6537 14.711C28.5502 15.5282 28.202 16.2951 27.6548 16.9108C27.1076 17.5266 26.387 17.9625 25.5876 18.1613C26.4981 17.2919 27.0805 16.1348 27.2365 14.8857L28.1195 7.82158L26.7242 7.64717L25.8412 14.7113C25.7166 15.6964 25.2372 16.6024 24.4928 17.2595C23.7483 17.9167 22.7899 18.2799 21.7969 18.2812C21.2376 18.2819 20.7015 18.5043 20.306 18.8998C19.9106 19.2952 19.6881 19.8314 19.6875 20.3906V21.2147C19.4617 21.1346 19.2239 21.0937 18.9844 21.0938H4.92188C4.68232 21.0937 4.44451 21.1346 4.21875 21.2147V20.3906C4.21896 20.2042 4.29311 20.0255 4.42493 19.8937C4.55674 19.7619 4.73546 19.6877 4.92188 19.6875ZM23.9062 23.9062V20.3906C23.9065 20.2042 23.9806 20.0255 24.1124 19.8937C24.2442 19.7619 24.423 19.6877 24.6094 19.6875C25.9291 19.6874 27.2043 19.2099 28.1997 18.3433L27.5043 23.9062H23.9062ZM22.6205 19.6875C22.5405 19.9133 22.4998 20.1511 22.5 20.3906V23.9062H21.0938V20.3906C21.094 20.2042 21.1681 20.0255 21.2999 19.8937C21.4317 19.7619 21.6105 19.6877 21.7969 19.6875H22.6205ZM19.6875 23.9062H4.21875V23.2031C4.21896 23.0167 4.29311 22.838 4.42493 22.7062C4.55674 22.5744 4.73546 22.5002 4.92188 22.5H18.9844C19.1708 22.5002 19.3495 22.5744 19.4813 22.7062C19.6131 22.838 19.6873 23.0167 19.6875 23.2031V23.9062ZM1.40625 20.3906C1.40646 20.2042 1.48061 20.0255 1.61243 19.8937C1.74424 19.7619 1.92296 19.6877 2.10938 19.6875H2.93301C2.85303 19.9133 2.81227 20.1511 2.8125 20.3906V23.9062H1.40625V20.3906ZM2.31978 41.8988C2.29811 41.9927 2.24086 42.0746 2.16008 42.1272C2.07929 42.1798 1.98126 42.199 1.8866 42.1808C1.79193 42.1627 1.708 42.1085 1.65245 42.0297C1.5969 41.9509 1.57406 41.8537 1.58872 41.7584L4.11882 25.3125H6.14741L2.31978 41.8988ZM9.87628 41.8988C9.8546 41.9927 9.79736 42.0746 9.71657 42.1272C9.63579 42.1798 9.53776 42.199 9.44309 42.1808C9.34842 42.1627 9.26449 42.1085 9.20894 42.0297C9.15339 41.9509 9.13055 41.8537 9.14521 41.7584L11.6753 25.3125H13.7039L9.87628 41.8988ZM23.9017 41.7584C23.9163 41.8537 23.8935 41.9509 23.8379 42.0297C23.7824 42.1085 23.6984 42.1626 23.6038 42.1808C23.5091 42.199 23.4111 42.1798 23.3303 42.1272C23.2495 42.0746 23.1923 41.9927 23.1706 41.8988L19.343 25.3125H21.3716L23.9017 41.7584ZM29.4413 42.0576C29.3964 42.1098 29.3379 42.1487 29.2723 42.1697C29.2067 42.1908 29.1365 42.1932 29.0696 42.1767C29.0027 42.1603 28.9417 42.1256 28.8933 42.0765C28.8449 42.0275 28.8111 41.9659 28.7956 41.8988L24.968 25.3125H26.9966L29.5267 41.7584C29.5352 41.8115 29.5319 41.8658 29.5171 41.9175C29.5024 41.9691 29.4765 42.017 29.4413 42.0576H29.4413Z" fill="#D3BE73"/>
</g>
<path d="M48.48 18V3.8H58.02V6.22H51.24V9.88H56.88V12.12H51.24V18H48.48Z" fill="#27302E"/>
<path d="M62.2208 18.2C61.1408 18.2 60.3208 17.8533 59.7608 17.16C59.2008 16.4667 58.9208 15.44 58.9208 14.08V7.52H61.6008V13.5C61.6008 15.1133 62.1808 15.92 63.3408 15.92C63.8608 15.92 64.3608 15.7667 64.8408 15.46C65.3341 15.14 65.7341 14.66 66.0408 14.02V7.52H68.7208V14.92C68.7208 15.2 68.7674 15.4 68.8608 15.52C68.9674 15.64 69.1341 15.7067 69.3608 15.72V18C69.0941 18.0533 68.8674 18.0867 68.6808 18.1C68.5074 18.1133 68.3474 18.12 68.2008 18.12C67.7208 18.12 67.3274 18.0133 67.0208 17.8C66.7274 17.5733 66.5541 17.2667 66.5008 16.88L66.4408 16.04C65.9741 16.76 65.3741 17.3 64.6408 17.66C63.9074 18.02 63.1008 18.2 62.2208 18.2Z" fill="#27302E"/>
<path d="M77.6241 9.84C76.8107 9.85334 76.0841 10.0133 75.4441 10.32C74.8041 10.6133 74.3441 11.06 74.0641 11.66V18H71.3841V7.52H73.8441V9.76C74.0307 9.4 74.2507 9.08 74.5041 8.8C74.7574 8.50667 75.0307 8.25333 75.3241 8.04C75.6174 7.82667 75.9107 7.66667 76.2041 7.56C76.5107 7.44 76.8041 7.38 77.0841 7.38C77.2307 7.38 77.3374 7.38 77.4041 7.38C77.4841 7.38 77.5574 7.38667 77.6241 7.4V9.84Z" fill="#27302E"/>
<path d="M88.8584 18H86.1784V12.12C86.1784 11.28 86.0318 10.6667 85.7384 10.28C85.4451 9.89333 85.0384 9.7 84.5184 9.7C84.2518 9.7 83.9784 9.75333 83.6984 9.86C83.4184 9.96667 83.1518 10.12 82.8984 10.32C82.6584 10.5067 82.4384 10.7333 82.2384 11C82.0384 11.2667 81.8918 11.56 81.7984 11.88V18H79.1184V7.52H81.5384V9.46C81.9251 8.79333 82.4851 8.27333 83.2184 7.9C83.9518 7.52667 84.7784 7.34 85.6984 7.34C86.3518 7.34 86.8851 7.46 87.2984 7.7C87.7118 7.94 88.0318 8.25333 88.2584 8.64C88.4851 9.02667 88.6384 9.46667 88.7184 9.96C88.8118 10.4533 88.8584 10.9533 88.8584 11.46V18Z" fill="#27302E"/>
<path d="M91.1888 18V7.52H93.8688V18H91.1888ZM91.1888 6.06V3.4H93.8688V6.06H91.1888Z" fill="#27302E"/>
<path d="M64.5 41H61.82V35.12C61.82 34.28 61.6733 33.6667 61.38 33.28C61.1 32.8933 60.7067 32.7 60.2 32.7C59.6667 32.7 59.1667 32.9067 58.7 33.32C58.2333 33.72 57.9 34.2467 57.7 34.9V41H55.02V35.12C55.02 34.28 54.8733 33.6667 54.58 33.28C54.3 32.8933 53.9067 32.7 53.4 32.7C52.88 32.7 52.38 32.9 51.9 33.3C51.4333 33.7 51.1 34.2267 50.9 34.88V41H48.22V30.52H50.64V32.46C51.0267 31.78 51.5533 31.26 52.22 30.9C52.9 30.5267 53.6733 30.34 54.54 30.34C55.42 30.34 56.1 30.5533 56.58 30.98C57.06 31.4067 57.3667 31.9333 57.5 32.56C57.9267 31.84 58.4667 31.2933 59.12 30.92C59.7733 30.5333 60.52 30.34 61.36 30.34C62 30.34 62.5267 30.46 62.94 30.7C63.3533 30.94 63.6733 31.2533 63.9 31.64C64.1267 32.0267 64.28 32.4667 64.36 32.96C64.4533 33.4533 64.5 33.9533 64.5 34.46V41Z" fill="#27302E"/>
<path d="M66.8333 41V30.52H69.5133V41H66.8333ZM66.8333 29.06V26.4H69.5133V29.06H66.8333Z" fill="#27302E"/>
<path d="M81.6709 41H78.9909V35.12C78.9909 34.28 78.8443 33.6667 78.5509 33.28C78.2576 32.8933 77.8509 32.7 77.3309 32.7C77.0643 32.7 76.7909 32.7533 76.5109 32.86C76.2309 32.9667 75.9643 33.12 75.7109 33.32C75.4709 33.5067 75.2509 33.7333 75.0509 34C74.8509 34.2667 74.7043 34.56 74.6109 34.88V41H71.9309V30.52H74.3509V32.46C74.7376 31.7933 75.2976 31.2733 76.0309 30.9C76.7643 30.5267 77.5909 30.34 78.5109 30.34C79.1643 30.34 79.6976 30.46 80.1109 30.7C80.5243 30.94 80.8443 31.2533 81.0709 31.64C81.2976 32.0267 81.4509 32.4667 81.5309 32.96C81.6243 33.4533 81.6709 33.9533 81.6709 34.46V41Z" fill="#27302E"/>
<path d="M84.0013 41V30.52H86.6813V41H84.0013ZM84.0013 29.06V26.4H86.6813V29.06H84.0013Z" fill="#27302E"/>
<path d="M105.379 41H102.699V35.12C102.699 34.28 102.552 33.6667 102.259 33.28C101.979 32.8933 101.586 32.7 101.079 32.7C100.546 32.7 100.046 32.9067 99.5789 33.32C99.1122 33.72 98.7789 34.2467 98.5789 34.9V41H95.8989V35.12C95.8989 34.28 95.7522 33.6667 95.4589 33.28C95.1789 32.8933 94.7856 32.7 94.2789 32.7C93.7589 32.7 93.2589 32.9 92.7789 33.3C92.3122 33.7 91.9789 34.2267 91.7789 34.88V41H89.0989V30.52H91.5189V32.46C91.9056 31.78 92.4322 31.26 93.0989 30.9C93.7789 30.5267 94.5522 30.34 95.4189 30.34C96.2989 30.34 96.9789 30.5533 97.4589 30.98C97.9389 31.4067 98.2456 31.9333 98.3789 32.56C98.8056 31.84 99.3456 31.2933 99.9989 30.92C100.652 30.5333 101.399 30.34 102.239 30.34C102.879 30.34 103.406 30.46 103.819 30.7C104.232 30.94 104.552 31.2533 104.779 31.64C105.006 32.0267 105.159 32.4667 105.239 32.96C105.332 33.4533 105.379 33.9533 105.379 34.46V41Z" fill="#27302E"/>
<path d="M110.572 41.2C110.066 41.2 109.592 41.12 109.152 40.96C108.712 40.7867 108.332 40.5533 108.012 40.26C107.692 39.9533 107.439 39.6 107.252 39.2C107.079 38.8 106.992 38.36 106.992 37.88C106.992 37.3867 107.099 36.9333 107.312 36.52C107.539 36.0933 107.846 35.7333 108.232 35.44C108.632 35.1467 109.106 34.92 109.652 34.76C110.199 34.5867 110.799 34.5 111.452 34.5C111.919 34.5 112.372 34.54 112.812 34.62C113.266 34.7 113.666 34.8133 114.012 34.96V34.36C114.012 33.6667 113.812 33.1333 113.412 32.76C113.026 32.3867 112.446 32.2 111.672 32.2C111.112 32.2 110.566 32.3 110.032 32.5C109.499 32.7 108.952 32.9933 108.392 33.38L107.572 31.68C108.919 30.7867 110.372 30.34 111.932 30.34C113.439 30.34 114.606 30.7133 115.432 31.46C116.272 32.1933 116.692 33.26 116.692 34.66V37.92C116.692 38.2 116.739 38.4 116.832 38.52C116.939 38.64 117.106 38.7067 117.332 38.72V41C116.879 41.0933 116.486 41.14 116.152 41.14C115.646 41.14 115.252 41.0267 114.972 40.8C114.706 40.5733 114.539 40.2733 114.472 39.9L114.412 39.32C113.946 39.9333 113.379 40.4 112.712 40.72C112.046 41.04 111.332 41.2 110.572 41.2ZM111.332 39.24C111.786 39.24 112.212 39.16 112.612 39C113.026 38.84 113.346 38.6267 113.572 38.36C113.866 38.1333 114.012 37.88 114.012 37.6V36.4C113.692 36.28 113.346 36.1867 112.972 36.12C112.599 36.04 112.239 36 111.892 36C111.199 36 110.632 36.16 110.192 36.48C109.752 36.7867 109.532 37.18 109.532 37.66C109.532 38.1133 109.706 38.4933 110.052 38.8C110.399 39.0933 110.826 39.24 111.332 39.24Z" fill="#27302E"/>
<path d="M119.177 26.4H121.857V37.64C121.857 38.0267 121.95 38.3267 122.137 38.54C122.323 38.7533 122.59 38.86 122.937 38.86C123.097 38.86 123.27 38.8333 123.457 38.78C123.657 38.7267 123.843 38.66 124.017 38.58L124.377 40.62C124.017 40.7933 123.597 40.9267 123.117 41.02C122.637 41.1133 122.203 41.16 121.817 41.16C120.977 41.16 120.323 40.94 119.857 40.5C119.403 40.0467 119.177 39.4067 119.177 38.58V26.4Z" fill="#27302E"/>
<defs>
<clipPath id="clip0_34_22">
<rect width="31" height="45" fill="white"/>
</clipPath>
</defs>
</svg>
