<svg width="56" height="66" viewBox="0 0 56 66" fill="none" xmlns="http://www.w3.org/2000/svg">
<path d="M55.2864 18.136L55.2844 18.0854C55.2562 17.4611 55.2373 16.8005 55.2259 16.0656C55.1729 12.4817 52.3239 9.51712 48.7394 9.31677C41.2661 8.89971 35.4848 6.46281 30.545 1.64803L30.5029 1.60786C28.8916 0.13055 26.4612 0.13055 24.8495 1.60786L24.8073 1.64803C19.8676 6.46281 14.0863 8.89971 6.61293 9.31727C3.02899 9.51712 0.179496 12.4817 0.126434 16.0661C0.115524 16.7961 0.0961832 17.4566 0.0679164 18.0854L0.064941 18.203C-0.0803604 25.8236 -0.260871 35.3079 2.91196 43.9164C4.65657 48.6503 7.29877 52.7654 10.7647 56.148C14.7121 60.0002 19.8825 63.0585 26.1319 65.2375C26.3352 65.3084 26.5465 65.3659 26.7617 65.4091C27.0652 65.4696 27.3707 65.4998 27.6762 65.4998C27.9817 65.4998 28.2876 65.4696 28.5906 65.4091C28.8059 65.3659 29.0186 65.3079 29.2229 65.2365C35.4649 63.0535 40.6298 59.9937 44.5738 56.142C48.0382 52.7584 50.6804 48.6424 52.4265 43.9074C55.6112 35.2732 55.4312 25.771 55.2864 18.136ZM48.848 42.5878C45.5016 51.661 38.6705 57.8921 27.9643 61.6362C27.9261 61.6491 27.8855 61.6605 27.8433 61.6689C27.7327 61.6907 27.6201 61.6907 27.5081 61.6684C27.4664 61.66 27.4257 61.6491 27.3881 61.6362C16.6705 57.899 9.83485 51.6714 6.49093 42.5977C3.56656 34.6627 3.73219 25.9565 3.87848 18.2759L3.87948 18.2332C3.90923 17.5732 3.92907 16.8819 3.93998 16.1221C3.96378 14.5308 5.23132 13.2141 6.82567 13.1254C11.0548 12.8893 14.7701 12.072 18.184 10.627C21.5934 9.18387 24.6214 7.14965 27.4401 4.40826C27.5834 4.28726 27.7694 4.28676 27.9122 4.40826C30.7315 7.14965 33.7595 9.18387 37.1684 10.627C40.5822 12.072 44.2976 12.8893 48.5272 13.1254C50.1215 13.2141 51.3891 14.5308 51.4124 16.1226C51.4238 16.8863 51.4436 17.5776 51.4734 18.2332C51.6192 25.9228 51.7808 34.6359 48.848 42.5878Z" fill="#D3BE73"/>
<path d="M27.6752 16.8021C18.7429 16.8021 11.4763 24.0692 11.4763 33.001C11.4763 41.9334 18.7429 49.2005 27.6752 49.2005C36.6071 49.2005 43.8742 41.9334 43.8742 33.001C43.8742 24.0692 36.6071 16.8021 27.6752 16.8021ZM27.6752 45.3859C20.8461 45.3859 15.2904 39.8302 15.2904 33.001C15.2904 26.1719 20.8461 20.6162 27.6752 20.6162C34.5039 20.6162 40.0596 26.1719 40.0596 33.001C40.0596 39.8302 34.5039 45.3859 27.6752 45.3859Z" fill="#D3BE73"/>
<path d="M32.3309 27.972L24.807 35.4959L22.7648 33.4538C22.0199 32.7089 20.8124 32.7089 20.0675 33.4538C19.3232 34.1986 19.3232 35.4062 20.0675 36.1505L23.4586 39.5416C23.831 39.914 24.319 40.1 24.807 40.1C25.2949 40.1 25.7829 39.914 26.1553 39.5416L35.0282 30.6687C35.7725 29.9239 35.7725 28.7163 35.0282 27.972C34.2833 27.2266 33.0758 27.2266 32.3309 27.972Z" fill="#D3BE73"/>
</svg>
