<svg width="35" height="35" viewBox="0 0 35 35" fill="none" xmlns="http://www.w3.org/2000/svg">
<path fill-rule="evenodd" clip-rule="evenodd" d="M16.9798 24.912H18.4598C18.4598 24.912 18.9038 24.838 19.1258 24.616C19.3478 24.394 19.3478 23.95 19.3478 23.95C19.3478 23.95 19.3478 22.026 20.2358 21.73C21.1238 21.434 22.3078 23.654 23.4918 24.468C24.3798 25.134 25.0458 24.986 25.0458 24.986L28.3018 24.912C28.3018 24.912 30.0038 24.838 29.1898 23.432C29.1158 23.358 28.7458 22.47 26.7478 20.62C24.6758 18.696 24.9718 19.066 27.4138 15.736C28.8938 13.738 29.4858 12.554 29.3378 11.962C29.1898 11.444 28.0798 11.592 28.0798 11.592H24.3798C24.3798 11.592 24.0838 11.518 23.9358 11.666C23.7138 11.814 23.6398 12.036 23.6398 12.036C23.6398 12.036 23.0478 13.59 22.3078 14.922C20.6798 17.66 20.0138 17.808 19.7918 17.66C19.1998 17.29 19.3478 16.032 19.3478 15.218C19.3478 12.554 19.7918 11.444 18.5338 11.148C18.1638 11.074 17.8678 11 16.8318 11C15.4998 11 14.3898 11 13.7978 11.296C13.3538 11.518 13.0578 11.962 13.2798 11.962C13.5018 11.962 14.0938 12.11 14.3898 12.48C14.6858 13.146 14.6858 14.256 14.6858 14.256C14.6858 14.256 14.9078 17.438 14.1678 17.808C13.6498 18.104 12.9838 17.512 11.5038 14.996C10.7638 13.738 10.1718 12.258 10.1718 12.258C10.1718 12.258 10.0978 11.962 9.87577 11.814C9.65377 11.666 9.28377 11.592 9.28377 11.592H5.80578C5.80578 11.592 5.28778 11.592 5.06578 11.814C4.91778 12.036 5.06578 12.406 5.06578 12.406C5.06578 12.406 7.80378 18.77 10.9118 22.026C13.7978 25.134 16.9798 24.912 16.9798 24.912Z" fill="#D3BE73"/>
</svg>
