<svg width="35" height="35" viewBox="0 0 35 35" fill="none" xmlns="http://www.w3.org/2000/svg">
<path d="M27.79 13.02C27.79 13.02 27.58 11.55 26.95 10.92C26.18 10.08 25.27 10.08 24.85 10.01C21.91 9.79999 17.5 9.79999 17.5 9.79999C17.5 9.79999 13.09 9.79999 10.15 10.01C9.73 10.08 8.82 10.08 8.05 10.92C7.42 11.55 7.21 13.02 7.21 13.02C7.21 13.02 7 14.7 7 16.38V17.92C7 19.6 7.21 21.35 7.21 21.35C7.21 21.35 7.42 22.82 8.05 23.45C8.82 24.29 9.87 24.29 10.36 24.36C12.04 24.43 17.5 24.5 17.5 24.5C17.5 24.5 21.91 24.5 24.85 24.29C25.27 24.22 26.18 24.22 26.95 23.38C27.58 22.75 27.79 21.28 27.79 21.28C27.79 21.28 28 19.6 28 17.92V16.38C28 14.7 27.79 13.02 27.79 13.02ZM15.33 19.88V14L21 16.94L15.33 19.88Z" fill="#D3BE73"/>
</svg>
